<?xml version="1.0" encoding="utf-8"?>
<!-- Generator: Adobe Illustrator 17.1.0, SVG Export Plug-In . SVG Version: 6.00 Build 0)  -->
<!DOCTYPE svg PUBLIC "-//W3C//DTD SVG 1.1//EN" "http://www.w3.org/Graphics/SVG/1.1/DTD/svg11.dtd">
<svg version="1.1" id="Layer_1" xmlns="http://www.w3.org/2000/svg" xmlns:xlink="http://www.w3.org/1999/xlink" x="0px" y="0px"
	 viewBox="0.7 4.4 30.5 23.2" enable-background="new 0.7 4.4 30.5 23.2" xml:space="preserve">
<g fill="#aaa" transform="translate(192 48)">
	<path d="M-187.1-31.6l6.7-6.7c0.7-0.7,0.7-1.8,0-2.4c-0.7-0.7-1.8-0.7-2.4,0l-7.9,7.9c-0.3,0.3-0.5,0.8-0.5,1.2
		c0,0.4,0.2,0.9,0.5,1.2l7.9,7.9c0.7,0.7,1.8,0.7,2.4,0c0.7-0.7,0.7-1.8,0-2.4L-187.1-31.6L-187.1-31.6z"/>
	<path d="M-161.2-33.2l-7.9-7.9c-0.7-0.7-1.8-0.7-2.4,0c-0.7,0.7-0.7,1.8,0,2.4l6.7,6.7l-6.7,6.7c-0.7,0.7-0.7,1.8,0,2.4
		c0.7,0.7,1.8,0.7,2.4,0l7.9-7.9c0.3-0.3,0.5-0.8,0.5-1.2C-160.7-32.4-160.9-32.9-161.2-33.2z"/>
	<path d="M-175.8-22c-0.2,1-1.1,1.7-2.2,1.5l0,0c-1-0.2-1.7-1.1-1.5-2.2l3.2-19.4c0.2-1,1.1-1.7,2.2-1.5l0,0c1,0.2,1.7,1.1,1.5,2.2
		L-175.8-22z"/>
</g>
</svg>
